<?xml version="1.0" standalone="no"?>
<!DOCTYPE svg PUBLIC "-//W3C//DTD SVG 20010904//EN"
 "http://www.w3.org/TR/2001/REC-SVG-20010904/DTD/svg10.dtd">
<svg version="1.0" xmlns="http://www.w3.org/2000/svg"
 width="1200.000000pt" height="630.000000pt" viewBox="0 0 1200.000000 630.000000"
 preserveAspectRatio="xMidYMid meet">

<g transform="translate(0.000000,630.000000) scale(0.100000,-0.100000)"
fill="#000000" stroke="none">
<path d="M0 3150 l0 -3150 6000 0 6000 0 0 3150 0 3150 -6000 0 -6000 0 0
-3150z m5668 901 c92 -24 151 -59 234 -139 45 -43 71 -61 80 -56 7 4 36 29 63
55 72 68 97 86 156 113 272 127 597 -49 638 -345 13 -98 -1 -193 -43 -279 -34
-70 -195 -250 -224 -250 -9 0 -192 175 -407 388 -418 417 -426 424 -546 443
-242 39 -452 -152 -437 -398 4 -55 13 -89 38 -140 30 -61 73 -108 419 -456
l385 -387 -27 -27 -27 -27 -351 349 c-193 193 -372 377 -398 410 -67 83 -99
152 -111 235 -36 255 130 477 390 523 54 9 99 6 168 -12z m-53 -162 c32 -6 74
-21 94 -34 20 -13 206 -194 414 -403 l379 -379 -26 -29 -25 -29 -388 387
c-275 273 -399 391 -427 402 -79 33 -169 11 -234 -54 -52 -54 -68 -153 -37
-228 11 -25 139 -160 395 -417 209 -209 380 -384 380 -389 0 -9 -39 -46 -49
-46 -4 0 -178 172 -388 383 -437 437 -439 440 -431 571 5 71 10 87 57 158 37
59 129 108 217 117 6 1 37 -4 69 -10z m21 -188 c21 -16 198 -189 393 -384 325
-326 353 -357 340 -374 -16 -20 -31 -33 -40 -33 -4 0 -173 167 -378 370 -204
204 -377 370 -385 370 -30 0 -46 -13 -46 -39 0 -21 71 -97 372 -398 l373 -373
-28 -27 -27 -28 -371 370 c-207 206 -377 384 -385 402 -27 63 -12 118 42 154
43 28 94 25 140 -10z"/>
<path d="M6325 3980 c-71 -10 -140 -48 -220 -123 l-69 -64 17 -27 c31 -46 44
-43 110 22 87 85 131 106 226 106 62 -1 85 -5 126 -26 99 -52 154 -134 162
-244 5 -62 2 -78 -20 -128 -15 -31 -51 -83 -82 -115 -30 -32 -55 -65 -55 -73
0 -16 31 -48 46 -48 15 0 128 120 151 160 59 101 67 218 24 332 -60 157 -235
252 -416 228z"/>
<path d="M6313 3802 c-40 -16 -153 -116 -153 -135 0 -4 12 -20 26 -34 l26 -26
46 45 c87 83 122 94 191 58 26 -13 43 -30 50 -51 23 -67 9 -108 -58 -174 -48
-46 -51 -66 -14 -95 l28 -22 62 66 c80 84 98 145 72 241 -21 76 -120 146 -205
144 -16 0 -48 -8 -71 -17z"/>
<path d="M6317 3600 l-50 -50 23 -25 c33 -35 52 -31 99 20 44 48 47 56 31 86
-18 32 -50 22 -103 -31z"/>
</g>
</svg>
